<svg width="224" height="76" viewBox="0 0 224 76" fill="none" xmlns="http://www.w3.org/2000/svg">
<path d="M31.184 75.5404H1.05334V0.0538241H31.184V75.5404Z" fill="#CB9B81" stroke="white" stroke-width="0.106672"/>
<path d="M31.2373 39.8998C26.2181 58.3622 21.3214 67.3882 16.0574 75.5937H1V0.000488281H31.2373V39.8998Z" fill="#DCA98C"/>
<path d="M31.2373 0.000488281C23.9901 43.4897 8.14106 68.4481 1 75.5937V0.000488281H31.2373Z" fill="#E1AF93"/>
<path d="M18.6384 0.000488281C15.9157 18.8767 5.38001 44.767 1 52.9157V0.000488281H18.6384Z" fill="#DCA98C"/>
<path d="M7.29944 0.000488281C5.00873 11.5637 4.8942 13.1866 1 23.9383V0.000488281H7.29944Z" fill="#CB9B81"/>
<path d="M1 75.5937C8.14106 68.4481 23.9901 43.4897 31.2373 0.000488281" stroke="white" stroke-width="0.106672"/>
<path d="M1 25.1982C4.8942 13.8806 5.00873 12.1723 7.29944 0.000488281" stroke="white" stroke-width="0.106672"/>
<path d="M16.1172 75.5932C21.3599 67.4836 26.2369 58.563 31.2358 40.3164" stroke="white" stroke-width="0.106672"/>
<path d="M1 52.9157C5.38001 44.767 15.9157 18.8767 18.6384 0.000488281" stroke="white" stroke-width="0.106672"/>
<path d="M46.5208 27.5715V36.3193H43.8079V17.9932H49.7874C51.6514 17.9932 53.1739 18.4085 54.3551 19.239C55.5547 20.0694 56.1545 21.1675 56.1545 22.5332C56.1545 23.8805 55.6746 24.9509 54.715 25.7444C53.7737 26.5196 52.4911 27.0548 50.867 27.3501L58.2861 36.3193L55.0748 36.7069L48.6524 27.5715H46.5208ZM46.5208 26.741H48.2925C51.6145 26.741 53.2754 25.4307 53.2754 22.8101C53.2754 22.3671 53.1647 21.8688 52.9432 21.3152C52.5188 20.1525 51.6145 19.3866 50.2303 19.0175C48.9754 19.0175 47.7389 19.1744 46.5208 19.4881V26.741ZM71.2332 31.9731L77.3512 17.9932H80.1748L81.1991 36.3193H78.3754L77.628 20.5677H77.5173L70.5412 36.3193H70.1536L63.3159 21.2044H63.2052L62.4577 36.3193H61.2397L62.264 17.9932H64.8385L71.2332 31.9731ZM94.5055 36.6515C91.6449 36.6515 89.2365 35.8764 87.2803 34.3262C85.324 32.7759 84.3459 30.5521 84.3459 27.6546C84.3459 25.9567 84.6688 24.4433 85.3148 23.1146C85.9607 21.7858 86.8097 20.7431 87.8616 19.9864C89.984 18.4362 92.3647 17.661 95.0038 17.661C96.5356 17.661 98.132 17.9379 99.793 18.4915L99.5161 20.374C98.6487 20.0049 97.9751 19.728 97.4953 19.5435C96.1111 19.0452 94.7178 18.796 93.3152 18.796C91.3773 19.239 89.8825 20.1986 88.8305 21.6751C87.797 23.1515 87.2803 24.997 87.2803 27.2116C87.2803 29.9246 87.9908 32.0193 89.4119 33.4957C90.8329 34.9536 92.7061 35.6826 95.0315 35.6826C97.3569 35.6826 99.0917 35.1843 100.236 34.1877V35.7103C98.6487 36.3378 96.7386 36.6515 94.5055 36.6515ZM110.474 36.3193V17.9932H115.706C117.884 17.9932 119.849 18.4546 121.603 19.3774C122.544 19.8572 123.365 20.457 124.066 21.1768C124.768 21.8965 125.331 22.8193 125.755 23.9451C126.179 25.0524 126.392 26.2889 126.392 27.6546C126.392 29.6108 125.903 31.2626 124.925 32.6098C123.134 35.0828 120.237 36.3193 116.232 36.3193H110.474ZM115.678 35.3781C118.022 35.3781 119.905 34.686 121.326 33.3019C122.747 31.9177 123.457 29.8877 123.457 27.2116C123.457 25.1447 122.894 23.3822 121.769 21.9242C120.643 20.4478 119.185 19.4696 117.395 18.9898C115.789 18.9898 114.387 19.1836 113.187 19.5712V35.129C113.778 35.2951 114.608 35.3781 115.678 35.3781ZM130.074 36.3193V17.9932H141.175L140.898 19.848L135.749 18.9898C134.844 18.9898 133.848 19.1467 132.759 19.4604V26.1874H138.905V27.2393H132.759V35.3227L141.341 34.4646L141.064 36.3193H130.074ZM152.539 36.3193V17.9932H155.252V34.8245C156.378 35.1567 157.282 35.3227 157.965 35.3227L162.976 34.4646L162.643 36.3193H152.539ZM179.649 17.9932V29.2325C179.649 30.9488 179.465 32.2407 179.096 33.1081C178.929 33.4957 178.662 33.9386 178.293 34.4369C177.942 34.9167 177.527 35.3043 177.047 35.5996C175.829 36.3009 174.306 36.6515 172.479 36.6515C167.902 36.6515 165.614 34.2985 165.614 29.5924V17.9932H168.438V29.8138C168.438 30.349 168.447 30.7827 168.465 31.1149C168.484 31.4471 168.576 31.9177 168.742 32.5268C168.927 33.1358 169.167 33.6249 169.462 33.994C169.776 34.3631 170.255 34.6953 170.901 34.9906C171.566 35.2858 172.35 35.4335 173.254 35.4335C176.706 35.4335 178.431 33.588 178.431 29.8969V17.9932H179.649ZM191.559 26.4642L198.784 36.3193H195.324L190.12 28.2359L184.251 36.3193H182.562L189.483 27.4331L182.894 17.9932H186.355L190.95 25.606L196.708 17.9932H198.397L191.559 26.4642ZM202.12 36.3193V17.9932H213.221L212.944 19.848L207.795 18.9898C206.89 18.9898 205.894 19.1467 204.805 19.4604V26.1874H210.951V27.2393H204.805V35.3227L213.387 34.4646L213.11 36.3193H202.12Z" fill="#333333"/>
<path d="M44.1068 53.9849C44.3006 53.5715 44.6171 53.1775 45.0564 52.8029C45.5085 52.4153 45.9607 52.2215 46.4128 52.2215C46.697 52.2215 46.9102 52.2603 47.0523 52.3378V53.9268C46.7681 53.578 46.3676 53.4036 45.8509 53.4036C45.3083 53.4036 44.882 53.6426 44.5719 54.1206C44.2619 54.5857 44.1068 55.1864 44.1068 55.9227V57.4924C44.1068 58.2158 44.1908 58.7132 44.3588 58.9845C44.5267 59.2558 44.6882 59.4043 44.8432 59.4302H42.1109C42.2659 59.4043 42.4274 59.2622 42.5954 59.0039C42.7762 58.7326 42.8667 58.2287 42.8667 57.4924V54.5663C42.8667 54.0237 42.7762 53.6555 42.5954 53.4617C42.4274 53.255 42.2336 53.1517 42.014 53.1517L44.1068 52.2215V53.9849ZM51.0696 59.6627C50.372 59.6627 49.7713 59.4948 49.2675 59.1589C48.7636 58.8101 48.3761 58.3644 48.1048 57.8218C47.8464 57.2663 47.7172 56.6785 47.7172 56.0584C47.7172 55.2574 47.8722 54.5663 48.1823 53.9849C48.5053 53.4036 48.9187 52.9644 49.4225 52.6672C49.9263 52.3701 50.4495 52.2215 50.9921 52.2215C51.7672 52.2215 52.4326 52.5057 52.9881 53.0742C53.5565 53.6297 53.8665 54.4048 53.9182 55.3995H48.8799C48.8799 56.0196 48.9962 56.5687 49.2287 57.0467C49.4612 57.5117 49.7713 57.8735 50.1589 58.1318C50.5593 58.3773 50.9921 58.5 51.4572 58.5C52.6715 58.5 53.4919 58.1125 53.9182 57.3373C53.8019 58.035 53.4854 58.5969 52.9687 59.0232C52.4519 59.4496 51.8189 59.6627 51.0696 59.6627ZM50.8565 52.861C50.3526 52.861 49.9199 53.0419 49.5581 53.4036C49.1964 53.7524 48.9768 54.211 48.8993 54.7794H52.4261C52.4261 54.1852 52.2646 53.7201 51.9416 53.3842C51.6316 53.0354 51.2699 52.861 50.8565 52.861ZM60.7275 59.6627C60.3141 59.6498 59.9653 59.54 59.6811 59.3333C59.3968 59.1266 59.2354 58.8876 59.1966 58.6163C58.9641 58.9522 58.654 59.2106 58.2665 59.3914C57.8918 59.5723 57.5172 59.6627 57.1425 59.6627C56.5483 59.6627 56.0509 59.4948 55.6504 59.1589C55.2499 58.8101 55.0497 58.3579 55.0497 57.8024C55.0497 56.3684 56.3932 55.6515 59.0803 55.6515V55.4383C59.0803 54.7278 58.977 54.2046 58.7703 53.8687C58.4861 53.3907 58.021 53.1517 57.3751 53.1517C56.8712 53.1517 56.4514 53.3002 56.1155 53.5974C55.7925 53.8945 55.631 54.2821 55.631 54.7601C55.5535 54.6309 55.4889 54.5146 55.4373 54.4113C55.3985 54.3079 55.3791 54.1658 55.3791 53.9849C55.3791 53.5199 55.5987 53.1129 56.038 52.7641C56.4772 52.4024 57.0521 52.2215 57.7626 52.2215C58.7703 52.2215 59.4873 52.5574 59.9136 53.2292C60.0557 53.4359 60.1591 53.6943 60.2236 54.0043C60.2882 54.3144 60.3205 54.7213 60.3205 55.2251V57.5311C60.3205 57.9316 60.4303 58.2417 60.65 58.4613C60.8825 58.6809 61.2055 58.7907 61.6189 58.7907H61.8708L60.7275 59.6627ZM59.0803 56.2328C58.0468 56.2328 57.3492 56.362 56.9875 56.6204C56.6258 56.8787 56.4449 57.2275 56.4449 57.6668C56.4449 58.0285 56.5418 58.3127 56.7356 58.5194C56.9294 58.7261 57.1877 58.8295 57.5107 58.8295C57.7562 58.8295 57.9887 58.7713 58.2083 58.6551C58.4279 58.5388 58.6153 58.3773 58.7703 58.1706C58.977 57.8993 59.0803 57.5311 59.0803 57.0661V56.2328ZM62.8473 47.5127C62.8473 46.9701 62.7568 46.6019 62.576 46.4081C62.408 46.2014 62.2142 46.0981 61.9946 46.0981H61.8784L64.0875 45.0904V57.4924C64.0875 58.0608 64.1456 58.4871 64.2619 58.7713C64.3781 59.0555 64.5073 59.2493 64.6494 59.3527C64.7915 59.4431 64.8626 59.4689 64.8626 59.4302H62.0721C62.0721 59.4689 62.1432 59.4431 62.2853 59.3527C62.4274 59.2493 62.5566 59.0555 62.6729 58.7713C62.7891 58.4742 62.8473 58.0479 62.8473 57.4924V47.5127ZM73.5535 59.6627C72.8559 59.6627 72.2552 59.4948 71.7513 59.1589C71.2475 58.8101 70.8599 58.3644 70.5886 57.8218C70.3303 57.2663 70.2011 56.6785 70.2011 56.0584C70.2011 55.2574 70.3561 54.5663 70.6662 53.9849C70.9891 53.4036 71.4025 52.9644 71.9063 52.6672C72.4102 52.3701 72.9334 52.2215 73.476 52.2215C74.2511 52.2215 74.9164 52.5057 75.4719 53.0742C76.0403 53.6297 76.3504 54.4048 76.4021 55.3995H71.3638C71.3638 56.0196 71.48 56.5687 71.7126 57.0467C71.9451 57.5117 72.2552 57.8735 72.6427 58.1318C73.0432 58.3773 73.476 58.5 73.941 58.5C75.1554 58.5 75.9757 58.1125 76.4021 57.3373C76.2858 58.035 75.9693 58.5969 75.4525 59.0232C74.9358 59.4496 74.3028 59.6627 73.5535 59.6627ZM73.3403 52.861C72.8365 52.861 72.4037 53.0419 72.042 53.4036C71.6803 53.7524 71.4607 54.211 71.3831 54.7794H74.9099C74.9099 54.1852 74.7485 53.7201 74.4255 53.3842C74.1154 53.0354 73.7537 52.861 73.3403 52.861ZM79.9171 59.6627C79.5295 59.6627 79.129 59.5981 78.7156 59.4689C78.3022 59.3397 77.9599 59.1718 77.6886 58.9651V57.2598C77.934 57.867 78.2635 58.3062 78.6769 58.5775C79.1032 58.8359 79.5618 58.9651 80.0527 58.9651C80.4532 58.9651 80.7762 58.8553 81.0216 58.6357C81.28 58.4161 81.4092 58.1771 81.4092 57.9187C81.4092 57.6345 81.28 57.3955 81.0216 57.2017C80.7632 57.0079 80.3692 56.7883 79.8395 56.5428C79.1549 56.2199 78.6252 55.9034 78.2505 55.5933C77.8759 55.2833 77.6886 54.8634 77.6886 54.3337C77.6886 53.7524 77.9082 53.255 78.3474 52.8416C78.7867 52.4282 79.3616 52.2215 80.0721 52.2215C80.563 52.2215 80.9893 52.2797 81.351 52.3959C81.7128 52.5122 81.9841 52.6414 82.1649 52.7835L81.8549 54.2369C81.6998 53.7976 81.4415 53.4682 81.0797 53.2486C80.718 53.029 80.3369 52.9191 79.9364 52.9191C79.5876 52.9191 79.297 53.0225 79.0644 53.2292C78.8448 53.4359 78.735 53.6684 78.735 53.9268C78.735 54.2756 78.8706 54.5534 79.1419 54.7601C79.4261 54.9668 79.8525 55.1928 80.4209 55.4383C81.0927 55.7225 81.6029 56.0132 81.9518 56.3103C82.3135 56.5945 82.4943 57.0015 82.4943 57.5311C82.4943 57.9058 82.391 58.2546 82.1843 58.5775C81.9776 58.9005 81.674 59.1653 81.2735 59.372C80.886 59.5658 80.4338 59.6627 79.9171 59.6627ZM86.152 59.6627C85.5189 59.6627 85.0409 59.4496 84.718 59.0232C84.395 58.584 84.2335 58.0608 84.2335 57.4536V53.1517H83.1484L85.4737 50.5163V52.3766H87.9541V53.1517H85.4737V57.2405C85.4737 57.7314 85.6029 58.106 85.8613 58.3644C86.1197 58.6098 86.4168 58.7326 86.7527 58.7326C87.011 58.7326 87.263 58.6551 87.5084 58.5C87.7539 58.345 87.9541 58.1318 88.1091 57.8606C87.9154 59.062 87.263 59.6627 86.152 59.6627ZM94.5952 59.6627C94.1818 59.6498 93.833 59.54 93.5488 59.3333C93.2646 59.1266 93.1031 58.8876 93.0643 58.6163C92.8318 58.9522 92.5217 59.2106 92.1342 59.3914C91.7595 59.5723 91.3849 59.6627 91.0102 59.6627C90.416 59.6627 89.9186 59.4948 89.5181 59.1589C89.1177 58.8101 88.9174 58.3579 88.9174 57.8024C88.9174 56.3684 90.261 55.6515 92.9481 55.6515V55.4383C92.9481 54.7278 92.8447 54.2046 92.638 53.8687C92.3538 53.3907 91.8887 53.1517 91.2428 53.1517C90.739 53.1517 90.3191 53.3002 89.9832 53.5974C89.6602 53.8945 89.4988 54.2821 89.4988 54.7601C89.4212 54.6309 89.3566 54.5146 89.305 54.4113C89.2662 54.3079 89.2468 54.1658 89.2468 53.9849C89.2468 53.5199 89.4665 53.1129 89.9057 52.7641C90.3449 52.4024 90.9198 52.2215 91.6303 52.2215C92.638 52.2215 93.355 52.5574 93.7813 53.2292C93.9234 53.4359 94.0268 53.6943 94.0914 54.0043C94.156 54.3144 94.1882 54.7213 94.1882 55.2251V57.5311C94.1882 57.9316 94.2981 58.2417 94.5177 58.4613C94.7502 58.6809 95.0732 58.7907 95.4866 58.7907H95.7385L94.5952 59.6627ZM92.9481 56.2328C91.9146 56.2328 91.2169 56.362 90.8552 56.6204C90.4935 56.8787 90.3126 57.2275 90.3126 57.6668C90.3126 58.0285 90.4095 58.3127 90.6033 58.5194C90.7971 58.7261 91.0555 58.8295 91.3784 58.8295C91.6239 58.8295 91.8564 58.7713 92.076 58.6551C92.2957 58.5388 92.483 58.3773 92.638 58.1706C92.8447 57.8993 92.9481 57.5311 92.9481 57.0661V56.2328ZM98.6334 59.6627C98.0004 59.6627 97.5224 59.4496 97.1994 59.0232C96.8764 58.584 96.715 58.0608 96.715 57.4536V53.1517H95.6298L97.9552 50.5163V52.3766H100.436V53.1517H97.9552V57.2405C97.9552 57.7314 98.0843 58.106 98.3427 58.3644C98.6011 58.6098 98.8982 58.7326 99.2341 58.7326C99.4925 58.7326 99.7444 58.6551 99.9899 58.5C100.235 58.345 100.436 58.1318 100.591 57.8606C100.397 59.062 99.7444 59.6627 98.6334 59.6627ZM104.596 59.6627C103.899 59.6627 103.298 59.4948 102.794 59.1589C102.29 58.8101 101.903 58.3644 101.631 57.8218C101.373 57.2663 101.244 56.6785 101.244 56.0584C101.244 55.2574 101.399 54.5663 101.709 53.9849C102.032 53.4036 102.445 52.9644 102.949 52.6672C103.453 52.3701 103.976 52.2215 104.519 52.2215C105.294 52.2215 105.959 52.5057 106.515 53.0742C107.083 53.6297 107.393 54.4048 107.445 55.3995H102.407C102.407 56.0196 102.523 56.5687 102.755 57.0467C102.988 57.5117 103.298 57.8735 103.685 58.1318C104.086 58.3773 104.519 58.5 104.984 58.5C106.198 58.5 107.018 58.1125 107.445 57.3373C107.329 58.035 107.012 58.5969 106.495 59.0232C105.979 59.4496 105.346 59.6627 104.596 59.6627ZM104.383 52.861C103.879 52.861 103.446 53.0419 103.085 53.4036C102.723 53.7524 102.503 54.211 102.426 54.7794H105.953C105.953 54.1852 105.791 53.7201 105.468 53.3842C105.158 53.0354 104.796 52.861 104.383 52.861Z" fill="#A6A6A6"/>
</svg>
