<svg width="35" height="35" viewBox="0 0 35 35" fill="none" xmlns="http://www.w3.org/2000/svg">
<path d="M16.5859 13.7087L16.5859 13.7087C16.5212 13.6141 16.4555 13.517 16.389 13.4187L16.364 13.3817L16.3627 13.3799L15.8884 12.692C15.3918 11.9952 14.8268 11.3024 14.1246 10.7902C13.8992 10.6258 13.6122 10.6058 13.373 10.7084C12.0973 11.2551 11.0264 12.6348 11.0779 14.0319C11.079 14.0638 11.0806 14.0977 11.0826 14.1336L11.102 14.3816L11.1372 14.6739L11.1933 15.0123C11.44 16.3157 12.1831 18.4281 14.3797 20.6248C16.5765 22.8215 18.6888 23.5646 19.9922 23.8111L20.3331 23.8677C20.3836 23.8748 20.4324 23.8812 20.4795 23.8869L20.7517 23.9138L20.9751 23.9267C22.3697 23.9767 23.7474 22.912 24.2931 21.6386C24.2931 21.6386 24.2931 21.6386 24.2931 21.6386L16.5859 13.7087ZM16.5859 13.7087C16.7865 14.002 16.7649 14.3908 16.5418 14.6581L16.4516 14.7488L15.12 15.7378L15.1199 15.7378M16.5859 13.7087L15.1199 15.7378M15.1199 15.7378C14.892 15.9071 14.8085 16.2224 14.952 16.4839L14.9521 16.484M15.1199 15.7378L14.9521 16.484M14.9521 16.484C15.2638 17.0511 15.8198 17.898 16.4631 18.5413C17.1067 19.185 17.992 19.7756 18.5946 20.1202C18.8222 20.2505 19.0954 20.207 19.2755 20.0426L19.2871 20.032M14.9521 16.484L19.2871 20.032M19.2871 20.032L19.2973 20.02M19.2871 20.032L19.2973 20.02M19.2973 20.02L19.3533 19.9543L19.3634 19.9425M19.2973 20.02L19.3634 19.9425M19.3634 19.9425L19.3719 19.9295M19.3634 19.9425L19.3719 19.9295M19.3719 19.9295L20.2434 18.602M19.3719 19.9295L20.2434 18.602M20.2434 18.602C20.499 18.2683 20.9714 18.1959 21.3158 18.434C21.3159 18.4341 21.316 18.4341 21.3161 18.4342L22.1048 18.984C22.1052 18.9842 22.1055 18.9845 22.1059 18.9848L20.2434 18.602ZM10.0898 29.7725L9.99682 29.7184L9.89367 29.7488L5.47206 31.0493C4.5906 31.3086 3.76678 30.5433 3.92095 29.6706L3.95564 29.5247L5.25425 25.1094L5.28533 25.0038L5.22833 24.9095C3.92052 22.747 3.16797 20.2106 3.16797 17.5018C3.16797 9.58571 9.58522 3.16846 17.5013 3.16846C25.4173 3.16846 31.8346 9.58571 31.8346 17.5018C31.8346 25.4178 25.4173 31.8351 17.5013 31.8351C14.9738 31.8351 12.5965 31.18 10.533 30.0299L10.0898 29.7725ZM5.58464 17.5018C5.58464 19.8503 6.26273 22.0367 7.43336 23.8801C7.68938 24.2834 7.79829 24.7775 7.71369 25.2667L7.66122 25.4904L7.0191 27.6736L6.88978 28.1133L7.32948 27.984L9.51932 27.34C10.0774 27.1758 10.66 27.2758 11.123 27.5697C12.9665 28.7404 15.1528 29.4185 17.5013 29.4185C24.0827 29.4185 29.418 24.0832 29.418 17.5018C29.418 10.9204 24.0827 5.58512 17.5013 5.58512C10.9199 5.58512 5.58464 10.9204 5.58464 17.5018Z" fill="#333333" stroke="#F7F7F7" stroke-width="0.5"/>
</svg>
